<?xml version="1.0" standalone="no"?>
<!DOCTYPE svg PUBLIC "-//W3C//DTD SVG 20010904//EN"
 "http://www.w3.org/TR/2001/REC-SVG-20010904/DTD/svg10.dtd">
<svg version="1.0" xmlns="http://www.w3.org/2000/svg"
 width="180.000000pt" height="180.000000pt" viewBox="0 0 180.000000 180.000000"
 preserveAspectRatio="xMidYMid meet">

<g transform="translate(0.000000,180.000000) scale(0.100000,-0.100000)"
fill="#f00707" stroke="none">
<path d="M765 1790 c-357 -56 -641 -314 -736 -670 -32 -121 -32 -319 0 -440
71 -265 235 -467 475 -585 139 -69 224 -88 391 -88 167 0 252 19 391 88 240
118 404 320 475 585 32 121 32 319 0 440 -86 323 -333 571 -646 650 -93 24
-263 33 -350 20z m-318 -302 c6 -7 15 -42 22 -78 22 -127 72 -408 106 -593 19
-103 35 -199 35 -212 0 -24 -84 -233 -100 -249 -21 -21 -32 17 -65 220 -18
115 -58 362 -89 550 -31 188 -56 348 -56 357 0 14 12 17 69 17 43 0 72 -5 78
-12z m721 4 c9 -6 6 -23 -13 -73 -165 -416 -196 -502 -183 -510 7 -5 83 -9
168 -9 85 0 160 -4 166 -8 6 -4 46 -117 88 -252 43 -135 84 -265 92 -289 8
-25 14 -46 14 -48 0 -7 -149 -2 -154 5 -3 5 -35 105 -71 223 -37 117 -71 219
-77 227 -8 9 -45 12 -147 10 l-136 -3 -20 -40 c-12 -22 -61 -127 -111 -233
l-89 -193 -75 3 c-85 3 -85 5 -50 83 11 22 51 119 90 215 39 96 86 211 105
255 18 44 84 204 145 355 62 151 117 278 124 282 15 10 118 10 134 0z m56
-352 c33 -12 59 -53 51 -80 -11 -34 -46 -60 -81 -60 -48 0 -83 16 -95 44 -31
68 45 127 125 96z"/>
</g>
</svg>
