<?xml version="1.0" standalone="no"?>
<!DOCTYPE svg PUBLIC "-//W3C//DTD SVG 20010904//EN"
 "http://www.w3.org/TR/2001/REC-SVG-20010904/DTD/svg10.dtd">
<svg version="1.0" xmlns="http://www.w3.org/2000/svg"
 width="32.000000pt" height="32.000000pt" viewBox="0 0 32.000000 32.000000"
 preserveAspectRatio="xMidYMid meet">

<g transform="translate(0.000000,32.000000) scale(0.100000,-0.100000)"
fill="#000000" stroke="none">
<path d="M90 298 c-33 -17 -51 -35 -67 -68 -29 -56 -29 -84 -1 -140 25 -48 89
-90 138 -90 49 0 113 42 138 90 28 56 28 84 0 140 -25 48 -89 90 -138 90 -14
0 -46 -10 -70 -22z m-6 -45 c3 -10 10 -48 17 -85 6 -38 12 -68 13 -68 2 0 15
33 31 73 27 71 49 106 60 95 3 -3 -3 -28 -14 -57 l-21 -51 34 0 c30 0 34 -4
45 -41 7 -23 15 -48 18 -56 4 -11 0 -14 -12 -12 -11 3 -22 19 -29 44 -9 32
-16 39 -36 40 -20 0 -29 -9 -44 -43 -19 -41 -31 -49 -52 -34 -11 7 -44 199
-35 207 9 10 20 5 25 -12z m146 -63 c0 -5 -7 -10 -15 -10 -8 0 -15 5 -15 10 0
6 7 10 15 10 8 0 15 -4 15 -10z"/>
</g>
</svg>
