<?xml version="1.0" standalone="no"?>
<!DOCTYPE svg PUBLIC "-//W3C//DTD SVG 20010904//EN"
 "http://www.w3.org/TR/2001/REC-SVG-20010904/DTD/svg10.dtd">
<svg version="1.0" xmlns="http://www.w3.org/2000/svg"
 width="32.000000pt" height="32.000000pt" viewBox="0 0 32.000000 32.000000"
 preserveAspectRatio="xMidYMid meet">

<g transform="translate(0.000000,32.000000) scale(0.100000,-0.100000)"
fill="#000000" stroke="none">
<path d="M52 250 c0 -14 2 -19 5 -12 2 6 2 18 0 25 -3 6 -5 1 -5 -13z"/>
<path d="M165 234 c-8 -20 -15 -38 -15 -39 0 -1 -7 -20 -17 -41 -16 -38 -16
-38 -23 -14 -6 19 -7 14 -7 -19 1 -27 -3 -46 -11 -49 -18 -6 -4 -22 18 -22 13
0 25 12 34 34 27 65 66 66 81 3 7 -27 30 -46 41 -34 4 3 -2 28 -11 56 -15 46
-20 51 -46 51 -27 0 -40 14 -21 22 5 2 12 22 16 46 5 34 3 42 -9 42 -8 0 -22
-16 -30 -36z"/>
<path d="M62 190 c0 -14 2 -19 5 -12 2 6 2 18 0 25 -3 6 -5 1 -5 -13z"/>
<path d="M91 194 c0 -11 3 -14 6 -6 3 7 2 16 -1 19 -3 4 -6 -2 -5 -13z"/>
<path d="M72 125 c0 -16 2 -22 5 -12 2 9 2 23 0 30 -3 6 -5 -1 -5 -18z"/>
</g>
</svg>
